<?xml version="1.0" standalone="no"?>
<!DOCTYPE svg PUBLIC "-//W3C//DTD SVG 20010904//EN"
 "http://www.w3.org/TR/2001/REC-SVG-20010904/DTD/svg10.dtd">
<svg version="1.0" xmlns="http://www.w3.org/2000/svg"
 width="700.000000pt" height="700.000000pt" viewBox="0 0 700.000000 700.000000"
 preserveAspectRatio="xMidYMid meet">
<metadata>
Created by potrace 1.14, written by Peter Selinger 2001-2017
</metadata>
<g transform="translate(0.000000,700.000000) scale(0.100000,-0.100000)"
fill="#000000" stroke="none">
<path d="M0 5130 l0 -1870 815 0 815 0 0 -815 0 -815 240 0 240 0 0 1055 0
1055 -814 0 -815 0 0 1389 0 1390 2205 0 2204 0 0 -1630 0 -1629 240 0 240 0
0 1630 0 1629 803 0 c441 0 808 0 815 1 9 0 12 55 12 240 l0 240 -3500 0
-3500 0 0 -1870z"/>
<path d="M986 6011 c-2 -3 -3 -89 -2 -191 l1 -185 73 -3 72 -3 -1 116 c-1 63
1 118 5 122 3 3 57 7 119 7 l112 1 2 71 1 71 -189 0 c-105 0 -191 -3 -193 -6z"/>
<path d="M1785 6012 c-3 -3 -5 -36 -5 -73 l0 -67 350 0 351 0 -3 72 -3 71
-342 1 c-189 0 -345 -1 -348 -4z"/>
<path d="M2895 6012 c-3 -3 -5 -36 -5 -72 l0 -67 350 -1 350 0 0 72 0 72 -345
1 c-189 0 -347 -2 -350 -5z"/>
<path d="M4005 6006 c-2 -6 -3 -38 -2 -71 l2 -60 90 -2 c50 -1 104 -2 120 -2
l30 -1 0 -117 0 -118 70 0 70 0 0 190 0 190 -188 1 c-129 1 -190 -3 -192 -10z"/>
<path d="M5872 5823 l1 -194 71 3 71 3 1 113 c0 61 4 115 7 118 4 4 58 7 121
6 l115 0 -2 72 -2 71 -191 1 -192 1 0 -194z"/>
<path d="M6449 5996 c-2 -30 -2 -77 0 -102 1 -22 3 -22 189 -20 l187 1 0 70 0
70 -187 1 c-185 1 -188 1 -189 -20z"/>
<path d="M991 5390 c-4 -3 -8 -121 -8 -262 -1 -191 2 -258 10 -259 71 -4 114
-5 123 -2 8 3 12 82 12 264 1 237 0 259 -16 260 -76 4 -115 3 -121 -1z"/>
<path d="M1630 5130 l0 -240 815 0 815 0 0 -2205 0 -2205 -1389 0 -1390 1 0
737 c0 405 -1 772 -1 815 l0 77 -240 0 -240 0 0 -1055 0 -1055 3500 0 3500 0
0 2685 0 2685 -240 0 -240 0 -2 -2442 -3 -2443 -1387 -2 -1388 -2 0 575 0 574
815 0 815 0 0 240 0 240 -815 0 -815 0 0 1630 0 1630 -1055 0 -1055 0 0 -240z"/>
<path d="M4243 4870 l0 -350 73 0 72 0 0 350 0 350 -73 0 -72 0 0 -350z"/>
<path d="M5872 4870 l0 -350 72 0 73 0 0 350 0 350 -72 0 -73 0 0 -350z"/>
<path d="M986 4621 c-5 -9 -5 -343 0 -362 4 -14 28 -16 192 -15 l187 1 3 72 3
72 -116 0 c-64 -1 -119 2 -123 5 -3 3 -6 57 -6 119 l-1 112 -68 1 c-37 1 -69
-1 -71 -5z"/>
<path d="M1609 4362 c-1 -15 -2 -40 -3 -57 -4 -64 -12 -62 269 -62 176 0 255
4 256 11 1 6 2 39 3 73 l1 63 -262 -1 -263 -1 -1 -26z"/>
<path d="M2373 4317 l0 -74 106 0 c58 -1 113 -2 121 -2 13 -1 15 -20 13 -120
l-1 -118 71 1 72 1 0 190 0 190 -191 2 -192 3 1 -73z"/>
<path d="M4244 3763 l1 -348 71 -3 72 -3 0 351 -1 350 -72 0 -72 0 1 -347z"/>
<path d="M5877 4103 c-3 -5 -5 -162 -5 -351 l0 -343 72 3 71 3 1 348 1 347
-68 0 c-37 0 -70 -3 -72 -7z"/>
<path d="M2613 3240 l0 -350 72 0 72 0 -1 348 -1 347 -71 3 -72 3 1 -351z"/>
<path d="M4244 2807 l1 -192 190 0 190 0 0 70 0 70 -113 1 c-62 1 -116 4 -119
8 -3 3 -6 57 -6 119 l0 114 -72 1 -71 1 0 -192z"/>
<path d="M5875 2990 c-3 -4 -4 -56 -3 -114 1 -58 -1 -108 -5 -112 -3 -4 -58
-7 -122 -7 l-115 -1 1 -72 1 -72 192 2 191 1 0 190 0 190 -68 2 c-37 0 -69 -3
-72 -7z"/>
<path d="M170 2684 l0 -73 190 1 190 0 1 49 c1 27 2 59 2 72 l1 22 -192 1
-192 2 0 -74z"/>
<path d="M744 2686 l1 -71 113 -1 c69 0 116 -5 120 -11 4 -6 7 -61 6 -122 l-1
-111 73 0 72 0 0 193 -1 194 -192 0 -191 0 0 -71z"/>
<path d="M4867 2751 c-2 -3 -2 -35 -2 -71 l1 -65 264 0 263 0 0 55 c-1 30 -1
62 -2 71 -1 14 -31 16 -262 16 -143 -1 -261 -3 -262 -6z"/>
<path d="M2612 2130 l-1 -350 73 0 73 0 0 350 0 350 -72 0 -72 0 -1 -350z"/>
<path d="M1009 2132 l-26 -3 0 -252 c0 -139 3 -257 7 -262 5 -6 37 -10 72 -10
l63 1 0 264 0 264 -45 0 c-25 1 -57 0 -71 -2z"/>
<path d="M986 1353 c-2 -10 -4 -97 -3 -193 l2 -175 190 0 190 0 3 72 3 72
-121 -2 -120 -2 -1 25 c0 14 0 69 1 123 l1 97 -70 0 c-58 0 -70 -3 -75 -17z"/>
<path d="M2613 1250 l2 -120 -25 -1 c-14 0 -69 -1 -122 -1 l-97 0 2 -72 2 -71
191 -1 190 -1 1 194 0 193 -73 0 -73 0 2 -120z"/>
<path d="M1609 1117 c-5 -50 -3 -105 3 -118 6 -14 38 -16 263 -16 140 0 255 3
256 6 0 3 1 35 2 71 l1 65 -262 2 c-192 1 -262 -2 -263 -10z"/>
</g>
</svg>
